<svg width="112" height="100" viewBox="0 0 112 100" fill="none" xmlns="http://www.w3.org/2000/svg">
<g filter="url(#filter0_di_2_72)">
<path d="M99.0346 87.7H12.432L55.7328 12.7L99.0346 87.7ZM21.0922 82.7H90.3734L55.7328 22.7L21.0922 82.7Z" fill="white"/>
<path d="M56.1654 12.45L99.4672 87.45L99.9008 88.2H11.5658L11.9994 87.45L55.3002 12.45L55.7328 11.7L56.1654 12.45ZM21.9574 82.2H89.5082L55.7328 23.699L21.9574 82.2Z" stroke="#FFDD00"/>
</g>
<g filter="url(#filter1_di_2_72)">
<path d="M99.0346 87.7H12.432L55.7328 12.7L99.0346 87.7ZM21.0922 82.7H90.3734L55.7328 22.7L21.0922 82.7Z" fill="white"/>
<path d="M56.1654 12.45L99.4672 87.45L99.9008 88.2H11.5658L11.9994 87.45L55.3002 12.45L55.7328 11.7L56.1654 12.45ZM21.9574 82.2H89.5082L55.7328 23.699L21.9574 82.2Z" stroke="#FFDD00"/>
</g>
<g filter="url(#filter2_di_2_72)">
<path d="M99.0346 87.7H12.432L55.7328 12.7L99.0346 87.7ZM21.0922 82.7H90.3734L55.7328 22.7L21.0922 82.7Z" fill="white"/>
<path d="M56.1654 12.45L99.4672 87.45L99.9008 88.2H11.5658L11.9994 87.45L55.3002 12.45L55.7328 11.7L56.1654 12.45ZM21.9574 82.2H89.5082L55.7328 23.699L21.9574 82.2Z" stroke="#FFDD00"/>
</g>
<g filter="url(#filter3_di_2_72)">
<path d="M99.0346 87.7H12.432L55.7328 12.7L99.0346 87.7ZM21.0922 82.7H90.3734L55.7328 22.7L21.0922 82.7Z" fill="white"/>
<path d="M56.1654 12.45L99.4672 87.45L99.9008 88.2H11.5658L11.9994 87.45L55.3002 12.45L55.7328 11.7L56.1654 12.45ZM21.9574 82.2H89.5082L55.7328 23.699L21.9574 82.2Z" stroke="#FFDD00"/>
</g>
<defs>
<filter id="filter0_di_2_72" x="-2.86102e-06" y="9.53674e-07" width="111.467" height="99.4" filterUnits="userSpaceOnUse" color-interpolation-filters="sRGB">
<feFlood flood-opacity="0" result="BackgroundImageFix"/>
<feColorMatrix in="SourceAlpha" type="matrix" values="0 0 0 0 0 0 0 0 0 0 0 0 0 0 0 0 0 0 127 0" result="hardAlpha"/>
<feOffset/>
<feGaussianBlur stdDeviation="5.35"/>
<feComposite in2="hardAlpha" operator="out"/>
<feColorMatrix type="matrix" values="0 0 0 0 1 0 0 0 0 0.866667 0 0 0 0 0 0 0 0 1 0"/>
<feBlend mode="normal" in2="BackgroundImageFix" result="effect1_dropShadow_2_72"/>
<feBlend mode="normal" in="SourceGraphic" in2="effect1_dropShadow_2_72" result="shape"/>
<feColorMatrix in="SourceAlpha" type="matrix" values="0 0 0 0 0 0 0 0 0 0 0 0 0 0 0 0 0 0 127 0" result="hardAlpha"/>
<feOffset/>
<feGaussianBlur stdDeviation="2.55"/>
<feComposite in2="hardAlpha" operator="arithmetic" k2="-1" k3="1"/>
<feColorMatrix type="matrix" values="0 0 0 0 1 0 0 0 0 0.866667 0 0 0 0 0 0 0 0 1 0"/>
<feBlend mode="normal" in2="shape" result="effect2_innerShadow_2_72"/>
</filter>
<filter id="filter1_di_2_72" x="-2.86102e-06" y="9.53674e-07" width="111.467" height="99.4" filterUnits="userSpaceOnUse" color-interpolation-filters="sRGB">
<feFlood flood-opacity="0" result="BackgroundImageFix"/>
<feColorMatrix in="SourceAlpha" type="matrix" values="0 0 0 0 0 0 0 0 0 0 0 0 0 0 0 0 0 0 127 0" result="hardAlpha"/>
<feOffset/>
<feGaussianBlur stdDeviation="5.35"/>
<feComposite in2="hardAlpha" operator="out"/>
<feColorMatrix type="matrix" values="0 0 0 0 1 0 0 0 0 0.866667 0 0 0 0 0 0 0 0 1 0"/>
<feBlend mode="normal" in2="BackgroundImageFix" result="effect1_dropShadow_2_72"/>
<feBlend mode="normal" in="SourceGraphic" in2="effect1_dropShadow_2_72" result="shape"/>
<feColorMatrix in="SourceAlpha" type="matrix" values="0 0 0 0 0 0 0 0 0 0 0 0 0 0 0 0 0 0 127 0" result="hardAlpha"/>
<feOffset/>
<feGaussianBlur stdDeviation="2.55"/>
<feComposite in2="hardAlpha" operator="arithmetic" k2="-1" k3="1"/>
<feColorMatrix type="matrix" values="0 0 0 0 1 0 0 0 0 0.866667 0 0 0 0 0 0 0 0 1 0"/>
<feBlend mode="normal" in2="shape" result="effect2_innerShadow_2_72"/>
</filter>
<filter id="filter2_di_2_72" x="-2.86102e-06" y="9.53674e-07" width="111.467" height="99.4" filterUnits="userSpaceOnUse" color-interpolation-filters="sRGB">
<feFlood flood-opacity="0" result="BackgroundImageFix"/>
<feColorMatrix in="SourceAlpha" type="matrix" values="0 0 0 0 0 0 0 0 0 0 0 0 0 0 0 0 0 0 127 0" result="hardAlpha"/>
<feOffset/>
<feGaussianBlur stdDeviation="5.35"/>
<feComposite in2="hardAlpha" operator="out"/>
<feColorMatrix type="matrix" values="0 0 0 0 1 0 0 0 0 0.866667 0 0 0 0 0 0 0 0 1 0"/>
<feBlend mode="normal" in2="BackgroundImageFix" result="effect1_dropShadow_2_72"/>
<feBlend mode="normal" in="SourceGraphic" in2="effect1_dropShadow_2_72" result="shape"/>
<feColorMatrix in="SourceAlpha" type="matrix" values="0 0 0 0 0 0 0 0 0 0 0 0 0 0 0 0 0 0 127 0" result="hardAlpha"/>
<feOffset/>
<feGaussianBlur stdDeviation="2.55"/>
<feComposite in2="hardAlpha" operator="arithmetic" k2="-1" k3="1"/>
<feColorMatrix type="matrix" values="0 0 0 0 1 0 0 0 0 0.866667 0 0 0 0 0 0 0 0 1 0"/>
<feBlend mode="normal" in2="shape" result="effect2_innerShadow_2_72"/>
</filter>
<filter id="filter3_di_2_72" x="-2.86102e-06" y="9.53674e-07" width="111.467" height="99.4" filterUnits="userSpaceOnUse" color-interpolation-filters="sRGB">
<feFlood flood-opacity="0" result="BackgroundImageFix"/>
<feColorMatrix in="SourceAlpha" type="matrix" values="0 0 0 0 0 0 0 0 0 0 0 0 0 0 0 0 0 0 127 0" result="hardAlpha"/>
<feOffset/>
<feGaussianBlur stdDeviation="5.35"/>
<feComposite in2="hardAlpha" operator="out"/>
<feColorMatrix type="matrix" values="0 0 0 0 1 0 0 0 0 0.866667 0 0 0 0 0 0 0 0 1 0"/>
<feBlend mode="normal" in2="BackgroundImageFix" result="effect1_dropShadow_2_72"/>
<feBlend mode="normal" in="SourceGraphic" in2="effect1_dropShadow_2_72" result="shape"/>
<feColorMatrix in="SourceAlpha" type="matrix" values="0 0 0 0 0 0 0 0 0 0 0 0 0 0 0 0 0 0 127 0" result="hardAlpha"/>
<feOffset/>
<feGaussianBlur stdDeviation="2.55"/>
<feComposite in2="hardAlpha" operator="arithmetic" k2="-1" k3="1"/>
<feColorMatrix type="matrix" values="0 0 0 0 1 0 0 0 0 0.866667 0 0 0 0 0 0 0 0 1 0"/>
<feBlend mode="normal" in2="shape" result="effect2_innerShadow_2_72"/>
</filter>
</defs>
</svg>
